<svg width="400" height="201" viewBox="0 0 400 201" fill="none" xmlns="http://www.w3.org/2000/svg">
<path d="M211.424 45.599C205.335 58.0653 190.308 63.2539 177.826 57.1994C165.343 51.1449 160.115 36.1309 166.136 23.6324C172.181 11.0874 187.263 5.83482 199.793 11.9118C212.322 17.9894 217.534 33.0864 211.424 45.599Z" fill="#F69E0A"/>
<path d="M13.7835 196.607V180.046C18.5394 180.046 21.9365 179.112 23.9748 177.244C26.013 175.375 27.2869 172.743 27.7965 169.345C28.4759 165.778 28.8156 161.787 28.8156 157.371V114.567C28.8156 111.51 28.9006 108.113 29.0704 104.376C29.2403 100.469 29.4951 96.6475 29.8348 92.9107C27.1171 93.0805 23.8898 93.2504 20.153 93.4202C16.5861 93.4202 13.8684 93.5052 12 93.675V74.3116C19.8133 74.3116 26.4377 73.8869 31.873 73.0376C37.3084 72.1884 41.5548 71.1692 44.6122 69.9803C47.8394 68.7913 50.0475 67.6872 51.2365 66.6681H63.7208C64.0606 68.8762 64.2304 70.4898 64.2304 71.509C64.2304 72.5281 64.2304 73.5472 64.2304 74.5663C64.4003 75.4156 64.74 77.0292 65.2495 79.4072C68.6466 76.6895 72.5533 74.3116 76.9695 72.2733C81.3858 70.0652 85.802 68.3666 90.2182 67.1777C94.6345 65.8188 98.5411 65.1394 101.938 65.1394C117.565 65.1394 128.605 69.6405 135.06 78.6429C141.684 87.4753 144.996 101.743 144.996 121.446V155.587C144.996 157.965 144.912 161.362 144.742 165.778C144.572 170.025 144.317 174.101 143.977 178.008C146.865 177.668 149.922 177.498 153.149 177.498C156.377 177.329 158.84 177.244 160.538 177.244V196.607H93.7852V180.046C98.5411 180.046 101.938 179.112 103.976 177.244C106.185 175.375 107.543 172.743 108.053 169.345C108.732 165.778 109.072 161.787 109.072 157.371L108.817 121.192C108.817 110.151 107.204 101.998 103.976 96.7324C100.919 91.2971 95.6536 88.5794 88.18 88.5794C83.9336 88.5794 79.6872 89.5136 75.4408 91.382C71.3643 93.2504 67.8823 95.4585 64.9948 98.0063C64.9948 100.384 64.9948 102.847 64.9948 105.395C64.9948 107.773 64.9948 110.151 64.9948 112.529V155.587C64.9948 157.965 64.9098 161.362 64.74 165.778C64.5701 170.025 64.3153 174.101 63.9756 178.008C66.6933 177.668 69.6658 177.498 72.893 177.498C76.2901 177.329 78.8379 177.244 80.5365 177.244V196.607H13.7835Z" fill="#F8FAFC"/>
<path d="M176.257 180.046C181.013 180.046 184.41 179.112 186.448 177.244C188.487 175.375 189.761 172.743 190.27 169.345C190.95 165.778 191.289 161.787 191.289 157.371V115.077C191.289 112.019 191.374 108.537 191.544 104.631C191.714 100.554 191.969 96.6475 192.308 92.9107C189.591 93.0805 186.363 93.2504 182.627 93.4202C179.06 93.4202 176.342 93.5052 174.474 93.675V74.3116C182.287 74.3116 188.911 73.8869 194.347 73.0376C199.782 72.1884 204.028 71.1692 207.086 69.9803C210.313 68.7913 212.521 67.6872 213.71 66.6681H227.468V155.587C227.468 157.965 227.383 161.362 227.214 165.778C227.044 170.025 226.789 174.101 226.449 178.008C229.167 177.668 232.139 177.498 235.367 177.498C238.764 177.329 241.312 177.244 243.01 177.244V196.607H176.257V180.046Z" fill="#F8FAFC"/>
<path d="M265.214 52.6551C265.214 49.5977 265.214 46.1156 265.214 42.209C265.384 38.1324 265.639 34.2258 265.978 30.489C263.261 30.6588 260.033 30.8287 256.297 30.9985C252.73 30.9985 250.012 31.0835 248.144 31.2533V11.8899C256.127 11.8899 262.751 11.4652 268.017 10.6159C273.452 9.76667 277.698 8.74753 280.756 7.55854C283.983 6.36956 286.191 5.26551 287.38 4.24637H301.138V78.8976C306.913 73.802 312.773 70.235 318.718 68.1968C324.663 66.1585 330.268 65.1394 335.534 65.1394C345.725 65.1394 354.643 67.7721 362.286 73.0376C370.099 78.3032 376.129 85.7768 380.376 95.4585C384.792 105.14 387 116.521 387 129.599C387 143.188 384.452 155.417 379.357 166.288C374.431 176.989 367.382 185.397 358.21 191.511C349.037 197.626 337.997 200.684 325.088 200.684C320.502 200.684 314.642 199.665 307.508 197.626C300.544 195.758 294.089 191.681 288.144 185.397L280.501 196.607H265.214V52.6551ZM301.138 158.39C301.138 164.165 302.073 168.751 303.941 172.148C305.809 175.545 308.187 178.008 311.075 179.537C313.962 181.065 316.85 181.915 319.737 182.085C327.381 182.254 333.326 180.046 337.572 175.46C341.988 170.874 345.046 164.844 346.744 157.371C348.613 149.727 349.547 141.744 349.547 133.421C349.547 125.608 348.613 118.219 346.744 111.255C344.876 104.291 341.904 98.6857 337.827 94.4394C333.75 90.0231 328.4 87.9 321.776 88.0698C317.529 88.2397 313.623 89.3437 310.056 91.382C306.489 93.2504 303.516 95.7982 301.138 99.0255V158.39Z" fill="#F8FAFC"/>
</svg>
