<svg width="400" height="200" viewBox="0 0 400 200" fill="none" xmlns="http://www.w3.org/2000/svg">
<path d="M205.927 75.4767C203.059 81.3482 195.982 83.7919 190.102 80.9403C184.223 78.0887 181.761 71.0173 184.597 65.1306C187.443 59.222 194.547 56.7481 200.448 59.6103C206.349 62.4728 208.805 69.5833 205.927 75.4767Z" fill="#F69E0A"/>
<path d="M112.84 146.6V138.8C115.08 138.8 116.68 138.36 117.64 137.48C118.6 136.6 119.2 135.36 119.44 133.76C119.76 132.08 119.92 130.2 119.92 128.12V107.96C119.92 106.52 119.96 104.92 120.04 103.16C120.12 101.32 120.24 99.52 120.4 97.76C119.12 97.84 117.6 97.92 115.84 98C114.16 98 112.88 98.04 112 98.12V89C115.68 89 118.8 88.8 121.36 88.4C123.92 88 125.92 87.52 127.36 86.96C128.88 86.4 129.92 85.88 130.48 85.4H136.36C136.52 86.44 136.6 87.2 136.6 87.68C136.6 88.16 136.6 88.64 136.6 89.12C136.68 89.52 136.84 90.28 137.08 91.4C138.68 90.12 140.52 89 142.6 88.04C144.68 87 146.76 86.2 148.84 85.64C150.92 85 152.76 84.68 154.36 84.68C161.72 84.68 166.92 86.8 169.96 91.04C173.08 95.2 174.64 101.92 174.64 111.2V127.28C174.64 128.4 174.6 130 174.52 132.08C174.44 134.08 174.32 136 174.16 137.84C175.52 137.68 176.96 137.6 178.48 137.6C180 137.52 181.16 137.48 181.96 137.48V146.6H150.52V138.8C152.76 138.8 154.36 138.36 155.32 137.48C156.36 136.6 157 135.36 157.24 133.76C157.56 132.08 157.72 130.2 157.72 128.12L157.6 111.08C157.6 105.88 156.84 102.04 155.32 99.56C153.88 97 151.4 95.72 147.88 95.72C145.88 95.72 143.88 96.16 141.88 97.04C139.96 97.92 138.32 98.96 136.96 100.16C136.96 101.28 136.96 102.44 136.96 103.64C136.96 104.76 136.96 105.88 136.96 107V127.28C136.96 128.4 136.92 130 136.84 132.08C136.76 134.08 136.64 136 136.48 137.84C137.76 137.68 139.16 137.6 140.68 137.6C142.28 137.52 143.48 137.48 144.28 137.48V146.6H112.84Z" fill="#1B1F3B"/>
<path d="M189.363 138.8C191.603 138.8 193.203 138.36 194.163 137.48C195.123 136.6 195.723 135.36 195.963 133.76C196.283 132.08 196.443 130.2 196.443 128.12V108.2C196.443 106.76 196.483 105.12 196.563 103.28C196.643 101.36 196.763 99.52 196.923 97.76C195.643 97.84 194.123 97.92 192.363 98C190.683 98 189.403 98.04 188.523 98.12V89C192.203 89 195.323 88.8 197.883 88.4C200.443 88 202.443 87.52 203.883 86.96C205.403 86.4 206.443 85.88 207.003 85.4H213.483V127.28C213.483 128.4 213.443 130 213.363 132.08C213.283 134.08 213.163 136 213.003 137.84C214.283 137.68 215.683 137.6 217.203 137.6C218.803 137.52 220.003 137.48 220.803 137.48V146.6H189.363V138.8Z" fill="#1B1F3B"/>
<path d="M231.261 78.8C231.261 77.36 231.261 75.72 231.261 73.88C231.341 71.96 231.461 70.12 231.621 68.36C230.341 68.44 228.821 68.52 227.061 68.6C225.381 68.6 224.101 68.64 223.221 68.72V59.6C226.981 59.6 230.101 59.4 232.581 59C235.141 58.6 237.141 58.12 238.581 57.56C240.101 57 241.141 56.48 241.701 56H248.181V91.16C250.901 88.76 253.661 87.08 256.461 86.12C259.261 85.16 261.901 84.68 264.381 84.68C269.181 84.68 273.381 85.92 276.981 88.4C280.661 90.88 283.501 94.4 285.501 98.96C287.581 103.52 288.621 108.88 288.621 115.04C288.621 121.44 287.421 127.2 285.021 132.32C282.701 137.36 279.381 141.32 275.061 144.2C270.741 147.08 265.541 148.52 259.461 148.52C257.301 148.52 254.541 148.04 251.181 147.08C247.901 146.2 244.861 144.28 242.061 141.32L238.461 146.6H231.261V78.8ZM248.181 128.6C248.181 131.32 248.621 133.48 249.501 135.08C250.381 136.68 251.501 137.84 252.861 138.56C254.221 139.28 255.581 139.68 256.941 139.76C260.541 139.84 263.341 138.8 265.341 136.64C267.421 134.48 268.861 131.64 269.661 128.12C270.541 124.52 270.981 120.76 270.981 116.84C270.981 113.16 270.541 109.68 269.661 106.4C268.781 103.12 267.381 100.48 265.461 98.48C263.541 96.4 261.021 95.4 257.901 95.48C255.901 95.56 254.061 96.08 252.381 97.04C250.701 97.92 249.301 99.12 248.181 100.64V128.6Z" fill="#1B1F3B"/>
</svg>
