<svg width="1200" height="630" viewBox="0 0 1200 630" fill="none" xmlns="http://www.w3.org/2000/svg">
<rect width="1200" height="630" fill="#1B1F3B"/>
<path d="M649.52 162.21C637.475 186.873 607.746 197.138 583.051 185.16C558.357 173.182 548.013 143.479 559.925 118.753C571.883 93.9347 601.721 83.5433 626.509 95.5656C651.296 107.589 661.608 137.456 649.52 162.21Z" fill="#F69E0A"/>
<path d="M207.771 460.388V425.401C217.829 425.401 225.012 423.427 229.323 419.48C233.633 415.533 236.327 409.971 237.404 402.794C238.841 395.258 239.559 386.825 239.559 377.495V287.067C239.559 280.608 239.739 273.431 240.098 265.537C240.457 257.284 240.996 249.21 241.715 241.315C235.968 241.674 229.143 242.033 221.241 242.392C213.698 242.392 207.951 242.571 204 242.93V202.022C220.523 202.022 234.531 201.125 246.025 199.331C257.519 197.537 266.498 195.384 272.964 192.872C279.788 190.36 284.458 188.027 286.972 185.874H313.372C314.091 190.539 314.45 193.948 314.45 196.101C314.45 198.254 314.45 200.407 314.45 202.56C314.809 204.355 315.527 207.764 316.605 212.787C323.789 207.046 332.05 202.022 341.389 197.716C350.728 193.051 360.067 189.463 369.405 186.951C378.744 184.08 387.006 182.645 394.189 182.645C427.235 182.645 450.582 192.154 464.231 211.173C478.239 229.832 485.243 259.975 485.243 301.601V373.728C485.243 378.751 485.064 385.928 484.704 395.258C484.345 404.229 483.806 412.841 483.088 421.095C489.194 420.377 495.66 420.018 502.484 420.018C509.309 419.659 514.517 419.48 518.109 419.48V460.388H376.948V425.401C387.006 425.401 394.189 423.427 398.5 419.48C403.169 415.533 406.043 409.971 407.12 402.794C408.557 395.258 409.275 386.825 409.275 377.495L408.736 301.062C408.736 277.738 405.324 260.513 398.5 249.389C392.034 237.906 380.899 232.165 365.095 232.165C356.116 232.165 347.136 234.138 338.156 238.086C329.536 242.033 322.172 246.698 316.066 252.08C316.066 257.104 316.066 262.307 316.066 267.69C316.066 272.714 316.066 277.738 316.066 282.761V373.728C316.066 378.751 315.887 385.928 315.527 395.258C315.168 404.229 314.629 412.841 313.911 421.095C319.658 420.377 325.944 420.018 332.768 420.018C339.952 419.659 345.34 419.48 348.932 419.48V460.388H207.771Z" fill="#F8FAFC"/>
<path d="M551.349 425.401C561.406 425.401 568.59 423.427 572.9 419.48C577.21 415.533 579.904 409.971 580.982 402.794C582.419 395.258 583.137 386.825 583.137 377.495V288.144C583.137 281.685 583.317 274.329 583.676 266.075C584.035 257.463 584.574 249.21 585.292 241.315C579.545 241.674 572.721 242.033 564.818 242.392C557.276 242.392 551.529 242.571 547.577 242.93V202.022C564.1 202.022 578.108 201.125 589.602 199.331C601.096 197.537 610.076 195.384 616.541 192.872C623.366 190.36 628.035 188.027 630.55 185.874H659.644V373.728C659.644 378.751 659.464 385.928 659.105 395.258C658.746 404.229 658.207 412.841 657.489 421.095C663.236 420.377 669.521 420.018 676.346 420.018C683.53 419.659 688.917 419.48 692.509 419.48V460.388H551.349V425.401Z" fill="#F8FAFC"/>
<path d="M739.463 156.27C739.463 149.811 739.463 142.454 739.463 134.201C739.822 125.589 740.361 117.336 741.079 109.441C735.332 109.8 728.508 110.159 720.606 110.518C713.063 110.518 707.316 110.697 703.365 111.056V70.1479C720.247 70.1479 734.255 69.2508 745.39 67.4566C756.884 65.6624 765.863 63.5093 772.329 60.9974C779.153 58.4855 783.823 56.1531 786.337 54H815.431V211.711C827.643 200.946 840.035 193.41 852.607 189.104C865.178 184.798 877.032 182.645 888.166 182.645C909.718 182.645 928.575 188.207 944.738 199.331C961.261 210.455 974.012 226.244 982.992 246.698C992.331 267.152 997 291.194 997 318.825C997 347.532 991.612 373.369 980.837 396.335C970.42 418.942 955.514 436.704 936.118 449.623C916.722 462.541 893.375 469 866.076 469C856.378 469 843.987 466.847 828.901 462.541C814.174 458.594 800.525 449.981 787.953 436.704L771.79 460.388H739.463V156.27ZM815.431 379.649C815.431 391.849 817.407 401.538 821.358 408.715C825.309 415.892 830.337 421.095 836.444 424.324C842.55 427.554 848.656 429.348 854.762 429.707C870.925 430.066 883.497 425.401 892.477 415.712C901.816 406.023 908.281 393.284 911.873 377.495C915.824 361.348 917.799 344.482 917.799 326.899C917.799 310.392 915.824 294.783 911.873 280.07C907.922 265.358 901.636 253.516 893.015 244.545C884.395 235.215 873.081 230.729 859.072 231.088C850.093 231.447 841.831 233.78 834.288 238.086C826.746 242.033 820.46 247.415 815.431 254.233V379.649Z" fill="#F8FAFC"/>
<path d="M148.974 535.231L129 501.065H135.658L150.206 526.382C150.864 527.611 151.357 528.595 151.933 529.905C152.672 528.431 152.672 528.431 153.741 526.382L168.125 501.065H174.619L154.892 535.231V559.729H148.974V535.231Z" fill="#94A3B8"/>
<path d="M170.874 539.901C170.874 527.775 179.423 519.008 191.094 519.008C202.766 519.008 211.314 527.775 211.314 539.901C211.314 551.945 202.766 560.712 191.094 560.712C179.423 560.712 170.874 551.945 170.874 539.901ZM176.628 539.819C176.628 549.16 182.546 555.632 191.094 555.632C199.56 555.632 205.561 549.16 205.561 539.819C205.561 530.643 199.56 524.088 191.094 524.088C182.546 524.088 176.628 530.643 176.628 539.819Z" fill="#94A3B8"/>
<path d="M247.369 520.074H253.04V559.729H248.108L247.369 553.011C245.149 557.599 239.642 560.712 233.395 560.712C224.025 560.712 218.929 554.321 218.929 544.653V519.992H224.683V542.851C224.683 552.273 228.875 555.632 235.204 555.632C242.848 555.632 247.369 550.553 247.369 541.13V520.074Z" fill="#94A3B8"/>
<path d="M285.65 519.582V524.662H282.527C275.211 524.662 270.526 529.578 270.526 537.116V559.729H264.855V520.074H270.197L270.608 526.218C272.17 521.958 276.362 519.172 281.951 519.172C283.184 519.172 284.253 519.254 285.65 519.582Z" fill="#94A3B8"/>
<path d="M335.138 559.729H317.219V501.065H334.973C352.727 501.065 364.564 512.863 364.564 530.397C364.564 547.931 352.81 559.729 335.138 559.729ZM334.727 506.473H323.137V554.321H334.891C349.275 554.321 358.481 544.981 358.481 530.397C358.481 515.731 349.275 506.473 334.727 506.473Z" fill="#94A3B8"/>
<path d="M390.706 560.712C379.035 560.712 371.226 552.355 371.226 539.901C371.226 527.529 378.952 519.008 390.295 519.008C401.063 519.008 408.378 526.628 408.378 537.853V540.639H376.733C377.144 550.307 382.24 555.878 390.788 555.878C397.282 555.878 401.474 553.092 402.953 547.849H408.378C406.241 556.206 400.077 560.712 390.706 560.712ZM390.295 523.842C382.816 523.842 377.884 528.758 376.897 536.542H402.707C402.707 528.922 397.775 523.842 390.295 523.842Z" fill="#94A3B8"/>
<path d="M414.076 548.586H419.501C419.501 553.174 422.953 556.042 428.543 556.042C434.707 556.042 438.324 553.42 438.324 549.16C438.324 545.882 436.68 543.998 431.995 542.851L425.173 541.13C418.268 539.41 414.898 535.805 414.898 530.397C414.898 523.433 420.734 519.008 429.282 519.008C437.666 519.008 443.091 523.597 443.338 530.971H437.831C437.666 526.382 434.461 523.679 429.118 523.679C423.529 523.679 420.405 526.055 420.405 530.315C420.405 533.347 422.542 535.477 426.899 536.542L433.721 538.263C440.625 539.983 443.749 543.179 443.749 548.914C443.749 556.042 437.666 560.712 428.625 560.712C419.665 560.712 414.076 555.96 414.076 548.586Z" fill="#94A3B8"/>
<path d="M455.88 509.176C453.579 509.176 451.688 507.292 451.688 504.998C451.688 502.704 453.579 500.737 455.88 500.737C458.182 500.737 460.155 502.704 460.155 504.998C460.155 507.292 458.182 509.176 455.88 509.176ZM453.086 559.729V520.074H458.757V559.729H453.086Z" fill="#94A3B8"/>
<path d="M467.872 538.754C467.872 527.939 474.859 519.008 486.53 519.008C493.435 519.008 498.695 522.204 501.243 528.021L501.819 520.074H506.75V558.5C506.75 570.298 499.188 578 487.517 578C477.324 578 470.173 572.265 468.612 562.679H474.283C475.516 569.069 480.448 572.838 487.599 572.838C495.736 572.838 501.161 567.349 501.161 559.074V549.651C498.449 555.223 492.942 558.5 486.119 558.5C474.776 558.5 467.872 549.569 467.872 538.754ZM473.543 538.672C473.543 546.784 478.557 553.42 486.941 553.42C495.572 553.42 500.668 547.193 500.668 538.672C500.668 530.233 495.736 524.006 487.023 524.006C478.475 524.006 473.543 530.643 473.543 538.672Z" fill="#94A3B8"/>
<path d="M524.257 559.729H518.585V520.074H523.517L524.339 526.956C526.969 521.876 532.23 519.008 537.983 519.008C548.915 519.008 553.436 525.481 553.436 535.477V559.729H547.765V536.706C547.765 527.447 543.573 524.17 536.997 524.17C528.86 524.17 524.257 530.069 524.257 539V559.729Z" fill="#94A3B8"/>
<path d="M612.771 560.63C596.331 560.63 585.153 548.422 585.153 530.397C585.153 512.372 596.496 500.082 613.099 500.082C625.757 500.082 635.703 507.702 638.087 519.336H631.758C629.292 510.897 622.059 505.735 612.853 505.735C599.948 505.735 591.317 515.567 591.317 530.397C591.317 545.145 599.948 554.977 612.853 554.977C622.141 554.977 629.538 549.979 632.086 542.113H638.416C635.703 553.174 625.429 560.63 612.771 560.63Z" fill="#94A3B8"/>
<path d="M644.623 539.901C644.623 527.775 653.171 519.008 664.843 519.008C676.515 519.008 685.063 527.775 685.063 539.901C685.063 551.945 676.515 560.712 664.843 560.712C653.171 560.712 644.623 551.945 644.623 539.901ZM650.376 539.819C650.376 549.16 656.294 555.632 664.843 555.632C673.309 555.632 679.309 549.16 679.309 539.819C679.309 530.643 673.309 524.088 664.843 524.088C656.294 524.088 650.376 530.643 650.376 539.819Z" fill="#94A3B8"/>
<path d="M699.805 559.729H694.134V520.074H699.066L699.888 526.956C702.518 521.876 707.778 519.008 713.532 519.008C724.464 519.008 728.985 525.481 728.985 535.477V559.729H723.313V536.706C723.313 527.447 719.121 524.17 712.546 524.17C704.408 524.17 699.805 530.069 699.805 539V559.729Z" fill="#94A3B8"/>
<path d="M749.412 559.729H743.823V524.826H735.85V520.074H743.823V507.538H749.412V520.074H757.385V524.826H749.412V559.729Z" fill="#94A3B8"/>
<path d="M785.566 519.582V524.662H782.443C775.127 524.662 770.442 529.578 770.442 537.116V559.729H764.771V520.074H770.113L770.524 526.218C772.086 521.958 776.278 519.172 781.867 519.172C783.1 519.172 784.169 519.254 785.566 519.582Z" fill="#94A3B8"/>
<path d="M788.786 539.901C788.786 527.775 797.334 519.008 809.006 519.008C820.678 519.008 829.226 527.775 829.226 539.901C829.226 551.945 820.678 560.712 809.006 560.712C797.334 560.712 788.786 551.945 788.786 539.901ZM794.54 539.819C794.54 549.16 800.458 555.632 809.006 555.632C817.472 555.632 823.472 549.16 823.472 539.819C823.472 530.643 817.472 524.088 809.006 524.088C800.458 524.088 794.54 530.643 794.54 539.819Z" fill="#94A3B8"/>
<path d="M844.215 559.729H838.544V500H844.215V559.729Z" fill="#94A3B8"/>
<path d="M902.746 538.181H886.225V559.729H880.307V501.065H902.746C914.089 501.065 921.24 508.439 921.24 519.5C921.24 530.151 914.007 538.181 902.746 538.181ZM901.924 506.391H886.225V532.855H901.596C910.144 532.855 915.076 527.447 915.076 519.418C915.076 511.307 910.062 506.391 901.924 506.391Z" fill="#94A3B8"/>
<path d="M935.481 559.729H929.81V500H935.481V559.729Z" fill="#94A3B8"/>
<path d="M958.969 560.712C950.503 560.712 945.489 555.96 945.489 548.996C945.489 541.704 951.078 537.116 960.366 536.378L973.517 535.313V534.002C973.517 526.218 968.832 523.761 962.996 523.761C956.092 523.761 951.982 526.874 951.982 532.2H946.804C946.804 524.17 953.379 519.008 963.161 519.008C972.367 519.008 979.107 523.597 979.107 534.084V559.729H974.339L973.6 552.765C971.134 557.763 965.709 560.712 958.969 560.712ZM960.284 556.124C968.668 556.124 973.517 550.307 973.517 541.704V539.574L961.763 540.475C954.284 541.13 951.242 544.408 951.242 548.832C951.242 553.666 954.859 556.124 960.284 556.124Z" fill="#94A3B8"/>
<path d="M996.159 559.729H990.488V520.074H995.419L996.241 526.956C998.871 521.876 1004.13 519.008 1009.89 519.008C1020.82 519.008 1025.34 525.481 1025.34 535.477V559.729H1019.67V536.706C1019.67 527.447 1015.48 524.17 1008.9 524.17C1000.76 524.17 996.159 530.069 996.159 539V559.729Z" fill="#94A3B8"/>
<path d="M1053.33 560.712C1041.66 560.712 1033.85 552.355 1033.85 539.901C1033.85 527.529 1041.57 519.008 1052.92 519.008C1063.68 519.008 1071 526.628 1071 537.853V540.639H1039.35C1039.77 550.307 1044.86 555.878 1053.41 555.878C1059.9 555.878 1064.1 553.092 1065.58 547.849H1071C1068.86 556.206 1062.7 560.712 1053.33 560.712ZM1052.92 523.842C1045.44 523.842 1040.51 528.758 1039.52 536.542H1065.33C1065.33 528.922 1060.4 523.842 1052.92 523.842Z" fill="#94A3B8"/>
</svg>
