<svg width="400" height="400" viewBox="0 0 400 400" fill="none" xmlns="http://www.w3.org/2000/svg">
<rect width="400" height="400" fill="#1B1F3B"/>
<path d="M210.801 148.942C205.068 160.681 190.917 165.567 179.162 159.866C167.407 154.164 162.483 140.025 168.153 128.255C173.845 116.441 188.049 111.495 199.848 117.218C211.647 122.941 216.556 137.158 210.801 148.942Z" fill="#F69E0A"/>
<path d="M24.6795 291.149V275.553C29.1583 275.553 32.3574 274.673 34.2769 272.914C36.1964 271.154 37.396 268.675 37.8759 265.476C38.5157 262.117 38.8356 258.358 38.8356 254.199V213.89C38.8356 211.011 38.9156 207.812 39.0756 204.293C39.2355 200.614 39.4755 197.015 39.7954 193.496C37.2361 193.656 34.1969 193.816 30.6779 193.976C27.3188 193.976 24.7595 194.056 23 194.216V175.981C30.358 175.981 36.5962 175.581 41.7148 174.781C46.8334 173.981 50.8323 173.022 53.7115 171.902C56.7507 170.782 58.8301 169.742 59.9498 168.783H71.7066C72.0265 170.862 72.1864 172.382 72.1864 173.341C72.1864 174.301 72.1864 175.261 72.1864 176.221C72.3464 177.02 72.6663 178.54 73.1462 180.779C76.3453 178.22 80.0243 175.981 84.1831 174.061C88.342 171.982 92.5008 170.382 96.6597 169.263C100.819 167.983 104.498 167.343 107.697 167.343C122.413 167.343 132.81 171.582 138.888 180.06C145.126 188.377 148.245 201.814 148.245 220.368V252.52C148.245 254.759 148.165 257.958 148.006 262.117C147.846 266.116 147.606 269.955 147.286 273.634C150.005 273.314 152.884 273.154 155.923 273.154C158.962 272.994 161.282 272.914 162.881 272.914V291.149H100.019V275.553C104.498 275.553 107.697 274.673 109.616 272.914C111.696 271.154 112.975 268.675 113.455 265.476C114.095 262.117 114.415 258.358 114.415 254.199L114.175 220.129C114.175 209.731 112.655 202.054 109.616 197.095C106.737 191.976 101.778 189.417 94.7402 189.417C90.7413 189.417 86.7424 190.297 82.7435 192.056C78.9046 193.816 75.6255 195.895 72.9062 198.295C72.9062 200.534 72.9062 202.853 72.9062 205.253C72.9062 207.492 72.9062 209.731 72.9062 211.971V252.52C72.9062 254.759 72.8263 257.958 72.6663 262.117C72.5063 266.116 72.2664 269.955 71.9465 273.634C74.5058 273.314 77.305 273.154 80.3442 273.154C83.5433 272.994 85.9426 272.914 87.5422 272.914V291.149H24.6795Z" fill="#F8FAFC"/>
<path d="M177.684 275.553C182.163 275.553 185.362 274.673 187.282 272.914C189.201 271.154 190.401 268.675 190.881 265.476C191.52 262.117 191.84 258.358 191.84 254.199V214.37C191.84 211.491 191.92 208.212 192.08 204.533C192.24 200.694 192.48 197.015 192.8 193.496C190.241 193.656 187.202 193.816 183.683 193.976C180.323 193.976 177.764 194.056 176.005 194.216V175.981C183.363 175.981 189.601 175.581 194.719 174.781C199.838 173.981 203.837 173.022 206.716 171.902C209.755 170.782 211.835 169.742 212.954 168.783H225.911V252.52C225.911 254.759 225.831 257.958 225.671 262.117C225.511 266.116 225.271 269.955 224.951 273.634C227.51 273.314 230.31 273.154 233.349 273.154C236.548 272.994 238.947 272.914 240.547 272.914V291.149H177.684V275.553Z" fill="#F8FAFC"/>
<path d="M261.457 155.586C261.457 152.707 261.457 149.428 261.457 145.749C261.617 141.91 261.857 138.231 262.176 134.712C259.617 134.872 256.578 135.032 253.059 135.192C249.7 135.192 247.141 135.272 245.381 135.432V117.197C252.899 117.197 259.137 116.797 264.096 115.997C269.215 115.197 273.213 114.238 276.093 113.118C279.132 111.998 281.211 110.959 282.331 109.999H295.287V180.3C300.726 175.501 306.244 172.142 311.843 170.222C317.441 168.303 322.72 167.343 327.678 167.343C337.276 167.343 345.673 169.822 352.871 174.781C360.229 179.74 365.908 186.778 369.907 195.895C374.066 205.013 376.145 215.73 376.145 228.046C376.145 240.843 373.746 252.36 368.947 262.597C364.308 272.674 357.67 280.592 349.033 286.35C340.395 292.109 329.998 294.988 317.841 294.988C313.522 294.988 308.004 294.028 301.286 292.109C294.728 290.349 288.649 286.51 283.051 280.592L275.853 291.149H261.457V155.586ZM295.287 255.159C295.287 260.597 296.167 264.916 297.927 268.115C299.686 271.314 301.926 273.634 304.645 275.073C307.364 276.513 310.083 277.313 312.803 277.473C320.001 277.633 325.599 275.553 329.598 271.234C333.757 266.916 336.636 261.237 338.236 254.199C339.995 247.001 340.875 239.483 340.875 231.645C340.875 224.287 339.995 217.329 338.236 210.771C336.476 204.213 333.677 198.934 329.838 194.935C325.999 190.777 320.96 188.777 314.722 188.937C310.723 189.097 307.044 190.137 303.685 192.056C300.326 193.816 297.527 196.215 295.287 199.254V255.159Z" fill="#F8FAFC"/>
</svg>
